<svg width="18" height="18" viewBox="0 0 18 18" fill="none" xmlns="http://www.w3.org/2000/svg">
<path d="M14.6025 7.90495C14.2471 7.11426 13.6708 6.44307 12.943 5.97207C12.2152 5.50107 11.3669 5.25032 10.5 5.24995C10.1483 5.25279 9.7983 5.29812 9.4575 5.38495C9.0306 4.78236 8.43528 4.31923 7.74621 4.05364C7.05713 3.78805 6.30498 3.73183 5.58408 3.89203C4.86318 4.05223 4.20563 4.42172 3.69389 4.95416C3.18215 5.48659 2.83901 6.15827 2.7075 6.88495C2.21681 7.06161 1.80272 7.40324 1.53604 7.85143C1.26936 8.29962 1.16666 8.82653 1.24549 9.34206C1.32433 9.8576 1.57981 10.3297 1.96824 10.6777C2.35667 11.0258 2.85394 11.228 3.375 11.25H4.125C4.11718 11.3748 4.11718 11.5001 4.125 11.625C4.125 12.3211 4.40157 12.9888 4.89385 13.4811C5.38613 13.9734 6.05381 14.25 6.75 14.25H13.6275C14.4032 14.2498 15.1533 13.972 15.7419 13.4668C16.3306 12.9616 16.7189 12.2624 16.8368 11.4957C16.9546 10.729 16.794 9.94541 16.3842 9.28678C15.9744 8.62816 15.3424 8.13798 14.6025 7.90495ZM3.375 9.74995C3.17609 9.74995 2.98533 9.67093 2.84467 9.53028C2.70402 9.38963 2.625 9.19886 2.625 8.99995C2.625 8.80104 2.70402 8.61027 2.84467 8.46962C2.98533 8.32897 3.17609 8.24995 3.375 8.24995C3.57392 8.24995 3.76468 8.17093 3.90533 8.03028C4.04599 7.88963 4.125 7.69886 4.125 7.49995C4.125 6.90321 4.36206 6.33092 4.78401 5.90896C5.20597 5.487 5.77827 5.24995 6.375 5.24995C6.68954 5.25164 7.00023 5.31926 7.28701 5.44844C7.5738 5.57763 7.83032 5.7655 8.04 5.99995C7.50775 6.34627 7.05481 6.80131 6.71097 7.33517C6.36713 7.86903 6.14017 8.46962 6.04501 9.09745C5.62108 9.21684 5.23414 9.44127 4.92 9.74995H3.375ZM13.6275 12.75H6.75C6.45164 12.75 6.16549 12.6314 5.95451 12.4204C5.74353 12.2095 5.625 11.9233 5.625 11.625C5.625 11.3266 5.74353 11.0404 5.95451 10.8295C6.16549 10.6185 6.45164 10.5 6.75 10.5C6.94892 10.5 7.13968 10.4209 7.28033 10.2803C7.42099 10.1396 7.5 9.94886 7.5 9.74995C7.50322 9.04172 7.7569 8.35747 8.21613 7.8183C8.67537 7.27914 9.31055 6.91983 10.0092 6.80398C10.7079 6.68813 11.4251 6.82321 12.0338 7.1853C12.6424 7.5474 13.1034 8.11316 13.335 8.78245C13.3779 8.91133 13.4549 9.02615 13.558 9.11465C13.661 9.20315 13.7861 9.26201 13.92 9.28495C14.3457 9.36454 14.7267 9.59937 14.9891 9.94391C15.2515 10.2884 15.3766 10.7181 15.3402 11.1497C15.3037 11.5812 15.1084 11.9839 14.7919 12.2795C14.4755 12.5752 14.0605 12.7428 13.6275 12.75Z" fill="white" fill-opacity="0.6"/>
</svg>
