<svg width="17" height="17" viewBox="0 0 17 17" fill="none" xmlns="http://www.w3.org/2000/svg">
<path fill-rule="evenodd" clip-rule="evenodd" d="M7.75003 0.666657C6.62052 0.666753 5.50741 0.93696 4.50358 1.45473C3.49974 1.97251 2.63427 2.72284 1.97939 3.64312C1.32451 4.5634 0.899203 5.62695 0.738952 6.74503C0.5787 7.86311 0.688153 9.0033 1.05818 10.0705C1.4282 11.1377 2.04807 12.1009 2.86606 12.8798C3.68405 13.6587 4.67645 14.2306 5.76046 14.548C6.84446 14.8653 7.98865 14.9189 9.09754 14.7041C10.2064 14.4893 11.2479 14.0125 12.135 13.3133L15.1784 16.3567C15.3355 16.5085 15.546 16.5925 15.7645 16.5906C15.983 16.5887 16.192 16.501 16.3465 16.3465C16.501 16.192 16.5887 15.983 16.5906 15.7645C16.5925 15.546 16.5085 15.3355 16.3567 15.1783L13.3134 12.135C14.1367 11.0905 14.6493 9.83532 14.7926 8.51309C14.9359 7.19087 14.704 5.85501 14.1235 4.6584C13.5431 3.4618 12.6374 2.45279 11.5103 1.74685C10.3831 1.04091 9.08 0.666567 7.75003 0.666657ZM2.33336 7.74999C2.33336 6.3134 2.90404 4.93565 3.91987 3.91983C4.93569 2.90401 6.31344 2.33332 7.75003 2.33332C9.18662 2.33332 10.5644 2.90401 11.5802 3.91983C12.596 4.93565 13.1667 6.3134 13.1667 7.74999C13.1667 9.18658 12.596 10.5643 11.5802 11.5802C10.5644 12.596 9.18662 13.1667 7.75003 13.1667C6.31344 13.1667 4.93569 12.596 3.91987 11.5802C2.90404 10.5643 2.33336 9.18658 2.33336 7.74999Z" fill="white" fill-opacity="0.6"/>
</svg>
