<svg width="36" height="36" viewBox="0 0 36 36" fill="none" xmlns="http://www.w3.org/2000/svg">
<path d="M18 36L19.1317 24.7816L23.8446 35.0247L21.2723 24.0467L29.0558 32.2045L23.0584 22.6566L33.069 27.8451L24.2963 20.7618L35.4492 22.4187L24.8519 18.5678L35.9385 16.5136L24.665 16.3122L34.4839 10.7695L23.7558 14.2395L31.243 5.80893L22.2229 12.5744L26.5671 2.16947L20.2324 11.4971L20.9627 0.245499L18 11.1246L15.0373 0.245499L15.7676 11.4971L9.43295 2.16947L13.777 12.5744L4.75697 5.80893L12.2442 14.2395L1.51608 10.7695L11.335 16.3122L0.0614796 16.5136L11.1481 18.5678L0.550795 22.4187L11.7037 20.7618L2.931 27.8451L12.9416 22.6566L6.94417 32.2045L14.7277 24.0467L12.1554 35.0247L16.8683 24.7816L18 36Z" fill="#D9D9D9"/>
</svg>
