<svg width="17" height="17" viewBox="0 0 17 17" fill="none" xmlns="http://www.w3.org/2000/svg">
<g clip-path="url(#clip0_10_183)">
<path d="M13.4583 11.9709C14.3191 11.7961 15.0841 11.3077 15.6051 10.6006C16.126 9.89345 16.3656 9.01797 16.2773 8.14411C16.189 7.27026 15.7792 6.46038 15.1274 5.87169C14.4756 5.283 13.6283 4.9575 12.75 4.95838H11.8575C11.6228 4.04982 11.1662 3.21375 10.5286 2.52525C9.89099 1.83674 9.09239 1.31736 8.20449 1.01372C7.31659 0.71008 6.36718 0.631693 5.44151 0.785597C4.51583 0.9395 3.64286 1.32088 2.90098 1.89548C2.15909 2.47009 1.57152 3.21995 1.19101 4.07772C0.810499 4.93549 0.648962 5.87434 0.720902 6.80996C0.792842 7.74558 1.09601 8.64869 1.60318 9.43821C2.11035 10.2277 2.80565 10.8789 3.62666 11.3334" stroke="white" stroke-opacity="0.6" stroke-width="2" stroke-linecap="round" stroke-linejoin="round"/>
<path d="M9.20833 7.79163L6.375 12.0416H10.625L7.79167 16.2916" stroke="white" stroke-opacity="0.6" stroke-width="2" stroke-linecap="round" stroke-linejoin="round"/>
</g>
<defs>
<clipPath id="clip0_10_183">
<rect width="17" height="17" fill="white"/>
</clipPath>
</defs>
</svg>
