<svg width="26" height="24" viewBox="0 0 26 24" fill="none" xmlns="http://www.w3.org/2000/svg">
<path d="M12.4667 20C11.5778 20 10.8222 19.7083 10.2 19.125C9.57779 18.5417 9.26668 17.8333 9.26668 17H11.4C11.4 17.2833 11.5024 17.5207 11.7072 17.712C11.9113 17.904 12.1645 18 12.4667 18C12.7689 18 13.0224 17.904 13.2272 17.712C13.4313 17.5207 13.5333 17.2833 13.5333 17C13.5333 16.7167 13.4313 16.4793 13.2272 16.288C13.0224 16.096 12.7689 16 12.4667 16H2.33334V14H12.4667C13.3556 14 14.1111 14.2917 14.7333 14.875C15.3556 15.4583 15.6667 16.1667 15.6667 17C15.6667 17.8333 15.3556 18.5417 14.7333 19.125C14.1111 19.7083 13.3556 20 12.4667 20ZM2.33334 10V8H16.7333C17.1956 8 17.5778 7.85833 17.88 7.575C18.1822 7.29167 18.3333 6.93333 18.3333 6.5C18.3333 6.06667 18.1822 5.70833 17.88 5.425C17.5778 5.14167 17.1956 5 16.7333 5C16.2711 5 15.8889 5.14167 15.5867 5.425C15.2845 5.70833 15.1333 6.06667 15.1333 6.5H13C13 5.51667 13.3598 4.68733 14.0795 4.012C14.7998 3.33733 15.6845 3 16.7333 3C17.7822 3 18.6669 3.33733 19.3872 4.012C20.1069 4.68733 20.4667 5.51667 20.4667 6.5C20.4667 7.48333 20.1069 8.31233 19.3872 8.987C18.6669 9.66233 17.7822 10 16.7333 10H2.33334ZM19.9333 18V16C20.3956 16 20.7778 15.8583 21.08 15.575C21.3822 15.2917 21.5333 14.9333 21.5333 14.5C21.5333 14.0667 21.3822 13.7083 21.08 13.425C20.7778 13.1417 20.3956 13 19.9333 13H2.33334V11H19.9333C20.9822 11 21.8669 11.3373 22.5872 12.012C23.3069 12.6873 23.6667 13.5167 23.6667 14.5C23.6667 15.4833 23.3069 16.3127 22.5872 16.988C21.8669 17.6627 20.9822 18 19.9333 18Z" fill="white" fill-opacity="0.6"/>
</svg>
